<?xml version="1.0" encoding="UTF-8" standalone="no"?>
<svg
   xmlns:dc="http://purl.org/dc/elements/1.1/"
   xmlns:cc="http://creativecommons.org/ns#"
   xmlns:rdf="http://www.w3.org/1999/02/22-rdf-syntax-ns#"
   xmlns:svg="http://www.w3.org/2000/svg"
   xmlns="http://www.w3.org/2000/svg"
   xmlns:sodipodi="http://sodipodi.sourceforge.net/DTD/sodipodi-0.dtd"
   xmlns:inkscape="http://www.inkscape.org/namespaces/inkscape"
   width="1084.9591"
   height="549.5575"
   id="svg2"
   version="1.1"
   inkscape:version="0.48.5 r10040"
   sodipodi:docname="AmpCircuit.svg"
   inkscape:export-filename="/Users/trolfs/Documents/MFOS/SaundBox/AmpCircuit.png"
   inkscape:export-xdpi="90"
   inkscape:export-ydpi="90">
  <metadata
     id="metadata260">
    <rdf:RDF>
      <cc:Work
         rdf:about="">
        <dc:format>image/svg+xml</dc:format>
        <dc:type
           rdf:resource="http://purl.org/dc/dcmitype/StillImage" />
        <dc:title />
      </cc:Work>
    </rdf:RDF>
  </metadata>
  <defs
     id="defs258">
    <marker
       inkscape:stockid="Arrow1Mstart"
       orient="auto"
       refY="0.0"
       refX="0.0"
       id="Arrow1Mstart"
       style="overflow:visible">
      <path
         id="path3978"
         d="M 0.0,0.0 L 5.0,-5.0 L -12.5,0.0 L 5.0,5.0 L 0.0,0.0 z "
         style="fill-rule:evenodd;stroke:#000000;stroke-width:1.0pt;marker-start:none"
         transform="scale(0.4) translate(10,0)" />
    </marker>
    <marker
       inkscape:stockid="Arrow1Lend"
       orient="auto"
       refY="0.0"
       refX="0.0"
       id="Arrow1Lend"
       style="overflow:visible;">
      <path
         id="path3975"
         d="M 0.0,0.0 L 5.0,-5.0 L -12.5,0.0 L 5.0,5.0 L 0.0,0.0 z "
         style="fill-rule:evenodd;stroke:#000000;stroke-width:1.0pt;marker-start:none;"
         transform="scale(0.8) rotate(180) translate(12.5,0)" />
    </marker>
  </defs>
  <sodipodi:namedview
     pagecolor="#ffffff"
     bordercolor="#666666"
     borderopacity="1"
     objecttolerance="10"
     gridtolerance="10"
     guidetolerance="10"
     inkscape:pageopacity="1"
     inkscape:pageshadow="2"
     inkscape:window-width="1385"
     inkscape:window-height="692"
     id="namedview256"
     showgrid="false"
     showborder="true"
     inkscape:zoom="0.89680799"
     inkscape:cx="542.47955"
     inkscape:cy="274.77875"
     inkscape:window-x="24"
     inkscape:window-y="2"
     inkscape:window-maximized="0"
     inkscape:current-layer="svg2"
     fit-margin-top="40"
     fit-margin-left="40"
     fit-margin-bottom="40"
     fit-margin-right="40" />
  <desc
     id="desc4">Created by CircuitLab https://www.circuitlab.com/</desc>
  <path
     inkscape:connector-curvature="0"
     id="path8"
     stroke-miterlimit="6"
     d="m 219.22275,297.53533 0,-19.72344"
     style="fill:none;stroke:#000000;stroke-width:1.80328679;stroke-linecap:round;stroke-miterlimit:6" />
  <path
     inkscape:connector-curvature="0"
     id="path10"
     stroke-miterlimit="6"
     d="m 219.22275,348.2528 0,19.72343"
     style="fill:none;stroke:#000000;stroke-width:1.80328679;stroke-linecap:round;stroke-miterlimit:6" />
  <path
     inkscape:connector-curvature="0"
     id="path12"
     stroke-miterlimit="6"
     d="m 219.22275,297.53533 -9.86172,4.22645 19.72344,8.4529 -19.72344,8.45291 19.72344,8.45294 -19.72344,8.45291 19.72344,8.4529 -9.86172,4.22646"
     style="fill:none;stroke:#000000;stroke-width:1.80328679;stroke-linecap:round;stroke-miterlimit:6" />
  <path
     inkscape:connector-curvature="0"
     id="path20"
     stroke-miterlimit="6"
     d="m 309.38709,146.79186 0,40.8557"
     style="fill:none;stroke:#000000;stroke-width:1.80328679;stroke-linecap:round;stroke-miterlimit:6" />
  <path
     inkscape:connector-curvature="0"
     id="path22"
     stroke-miterlimit="6"
     d="m 309.38709,138.33892 0,-40.855706"
     style="fill:none;stroke:#000000;stroke-width:1.80328679;stroke-linecap:round;stroke-miterlimit:6" />
  <path
     inkscape:connector-curvature="0"
     id="path24"
     stroke-miterlimit="6"
     d="m 331.92818,138.33892 -45.08217,0"
     style="fill:none;stroke:#000000;stroke-width:1.80328679;stroke-linecap:round;stroke-miterlimit:6" />
  <path
     inkscape:connector-curvature="0"
     id="path26"
     stroke-miterlimit="6"
     d="m 331.92818,146.79186 -45.08217,0"
     style="fill:none;stroke:#000000;stroke-width:1.80328679;stroke-linecap:round;stroke-miterlimit:6" />
  <text
     id="text28"
     y="142.56538"
     x="337.56345"
     style="font-size:14.42629433px;font-weight:bold;text-anchor:start;fill:#000000;stroke:none;font-family:Arial">
    <tspan
       id="tspan30" />
  </text>
  <text
     y="155.29964"
     x="337.56345"
     style="font-size:14.42629433px;font-weight:bold;text-anchor:start;fill:#000000;stroke:none;font-family:Arial"
     id="text3139">
    <tspan
       x="337.56345"
       id="tspan3141">0.1µF</tspan>
  </text>
  <path
     inkscape:connector-curvature="0"
     id="path34"
     class="cl_wire"
     d="m 309.38712,187.64756 0,45.08217"
     style="fill:none;stroke:#000000;stroke-width:1.80328679;stroke-linecap:round" />
  <path
     inkscape:connector-curvature="0"
     id="path36"
     class="cl_wire"
     d="m 309.38712,232.72973 67.62325,0"
     style="fill:none;stroke:#000000;stroke-width:1.80328679;stroke-linecap:round" />
  <rect
     style="fill:#ffffff;stroke:#000000;stroke-width:1.80328679"
     id="rect38"
     ry="0"
     rx="0"
     r="0"
     height="202.86977"
     width="112.70542"
     y="153.83594"
     x="388.28091" />
  <text
     id="text40"
     style="font-size:14.42629433px;font-weight:bold;text-decoration:none;text-anchor:middle;fill:#000000;font-family:Arial"
     text-decoration="none"
     y="233.63136"
     x="444.63364">U2</text>
  <text
     id="text42"
     style="font-size:14.42629433px;font-weight:bold;text-decoration:none;text-anchor:middle;fill:#000000;font-family:Arial"
     text-decoration="none"
     y="255.27081"
     x="444.63364">LM386</text>
  <text
     id="text44"
     style="font-size:14.42629433px;font-weight:bold;text-decoration:none;text-anchor:middle;fill:#000000;font-family:Arial"
     text-decoration="none"
     y="276.91025"
     x="444.63364" />
  <path
     style="fill:none;stroke:#000000;stroke-width:1.80328679"
     inkscape:connector-curvature="0"
     id="path46"
     d="m 377.01037,187.64756 11.27055,0" />
  <text
     id="text48"
     style="font-size:10.81972027px;text-decoration:none;text-anchor:start;fill:#000000;font-family:Arial"
     text-decoration="none"
     y="191.25412"
     x="395.04324">1</text>
  <text
     id="text50"
     style="font-size:10.81972027px;text-decoration:none;text-anchor:middle;fill:#000000;font-family:Arial"
     text-decoration="none"
     y="184.94263"
     x="381.51859">1</text>
  <path
     style="fill:none;stroke:#000000;stroke-width:1.80328679"
     inkscape:connector-curvature="0"
     id="path52"
     d="m 377.01037,232.72973 11.27055,0" />
  <text
     id="text54"
     style="font-size:10.81972027px;text-decoration:none;text-anchor:start;fill:#000000;font-family:Arial"
     text-decoration="none"
     y="236.3363"
     x="395.04324">2</text>
  <text
     id="text56"
     style="font-size:10.81972027px;text-decoration:none;text-anchor:middle;fill:#000000;font-family:Arial"
     text-decoration="none"
     y="230.0248"
     x="381.51859" />
  <path
     style="fill:none;stroke:#000000;stroke-width:1.80328679"
     inkscape:connector-curvature="0"
     id="path58"
     d="m 377.01037,277.8119 11.27055,0" />
  <text
     id="text60"
     style="font-size:10.81972027px;text-decoration:none;text-anchor:start;fill:#000000;font-family:Arial"
     text-decoration="none"
     y="281.41846"
     x="395.04324">3</text>
  <text
     id="text62"
     style="font-size:10.81972027px;text-decoration:none;text-anchor:middle;fill:#000000;font-family:Arial"
     text-decoration="none"
     y="275.10696"
     x="381.51859" />
  <path
     style="fill:none;stroke:#000000;stroke-width:1.80328679"
     inkscape:connector-curvature="0"
     id="path64"
     d="m 377.01037,322.89407 11.27055,0" />
  <text
     id="text66"
     style="font-size:10.81972027px;text-decoration:none;text-anchor:start;fill:#000000;font-family:Arial"
     text-decoration="none"
     y="326.50064"
     x="395.04324">4</text>
  <text
     id="text68"
     style="font-size:10.81972027px;text-decoration:none;text-anchor:middle;fill:#000000;font-family:Arial"
     text-decoration="none"
     y="320.18915"
     x="381.51859" />
  <path
     style="fill:none;stroke:#000000;stroke-width:1.80328679"
     inkscape:connector-curvature="0"
     id="path70"
     d="m 512.25688,322.89407 -11.27054,0" />
  <text
     id="text72"
     style="font-size:10.81972027px;text-decoration:none;text-anchor:end;fill:#000000;font-family:Arial"
     text-decoration="none"
     y="326.50064"
     x="494.224">5</text>
  <text
     id="text74"
     style="font-size:10.81972027px;text-decoration:none;text-anchor:middle;fill:#000000;font-family:Arial"
     text-decoration="none"
     y="320.18915"
     x="507.74866" />
  <path
     style="fill:none;stroke:#000000;stroke-width:1.80328679"
     inkscape:connector-curvature="0"
     id="path76"
     d="m 512.25688,277.8119 -11.27054,0" />
  <text
     id="text78"
     style="font-size:10.81972027px;text-decoration:none;text-anchor:end;fill:#000000;font-family:Arial"
     text-decoration="none"
     y="281.41846"
     x="494.224">6</text>
  <text
     id="text80"
     style="font-size:10.81972027px;text-decoration:none;text-anchor:middle;fill:#000000;font-family:Arial"
     text-decoration="none"
     y="275.10696"
     x="507.74866" />
  <path
     style="fill:none;stroke:#000000;stroke-width:1.80328679"
     inkscape:connector-curvature="0"
     id="path82"
     d="m 512.25688,232.72973 -11.27054,0" />
  <text
     id="text84"
     style="font-size:10.81972027px;text-decoration:none;text-anchor:end;fill:#000000;font-family:Arial"
     text-decoration="none"
     y="236.3363"
     x="494.224">7</text>
  <text
     id="text86"
     style="font-size:10.81972027px;text-decoration:none;text-anchor:middle;fill:#000000;font-family:Arial"
     text-decoration="none"
     y="230.0248"
     x="507.74866" />
  <path
     style="fill:none;stroke:#000000;stroke-width:1.80328679"
     inkscape:connector-curvature="0"
     id="path88"
     d="m 512.25688,187.64756 -11.27054,0" />
  <text
     id="text90"
     style="font-size:10.81972027px;text-decoration:none;text-anchor:end;fill:#000000;font-family:Arial"
     text-decoration="none"
     y="191.25412"
     x="494.224">8</text>
  <text
     id="text92"
     style="font-size:10.81972027px;text-decoration:none;text-anchor:middle;fill:#000000;font-family:Arial"
     text-decoration="none"
     y="184.94263"
     x="507.74866" />
  <path
     inkscape:connector-curvature="0"
     id="path94"
     class="cl_wire"
     d="m 534.79797,97.483217 0,128.935003 a 6.311505,6.311505 0 0 1 0,12.62301 l 0,38.77067"
     style="fill:none;stroke:#000000;stroke-width:1.80328679;stroke-linecap:round" />
  <path
     inkscape:connector-curvature="0"
     id="path96"
     stroke-miterlimit="6"
     d="m 557.33902,417.28487 0,40.8557"
     style="fill:none;stroke:#000000;stroke-width:1.80328679;stroke-linecap:round;stroke-miterlimit:6" />
  <path
     inkscape:connector-curvature="0"
     id="path98"
     stroke-miterlimit="6"
     d="m 557.33902,408.83194 0,-40.85571"
     style="fill:none;stroke:#000000;stroke-width:1.80328679;stroke-linecap:round;stroke-miterlimit:6" />
  <path
     inkscape:connector-curvature="0"
     id="path100"
     stroke-miterlimit="6"
     d="m 579.88011,408.83194 -45.08217,0"
     style="fill:none;stroke:#000000;stroke-width:1.80328679;stroke-linecap:round;stroke-miterlimit:6" />
  <path
     inkscape:connector-curvature="0"
     id="path102"
     stroke-miterlimit="6"
     d="m 579.88011,417.28487 -45.08217,0"
     style="fill:none;stroke:#000000;stroke-width:1.80328679;stroke-linecap:round;stroke-miterlimit:6" />
  <text
     id="text104"
     y="413.05841"
     x="585.51538"
     style="font-size:14.42629433px;font-weight:bold;text-anchor:start;fill:#000000;stroke:none;font-family:Arial">
    <tspan
       id="tspan106"
       dy="-2.1639442">C2</tspan>
    <tspan
       id="tspan108"
       x="585.51538"
       dy="17.311554">10 µF</tspan>
  </text>
  <path
     inkscape:connector-curvature="0"
     id="path110"
     class="cl_wire"
     d="m 512.25688,232.72973 45.08217,0"
     style="fill:none;stroke:#000000;stroke-width:1.80328679;stroke-linecap:round" />
  <path
     inkscape:connector-curvature="0"
     id="path112"
     class="cl_wire"
     d="m 557.33905,232.72973 0,83.85283 a 6.311505,6.311505 0 0 1 0,12.62301 l 0,38.77067"
     style="fill:none;stroke:#000000;stroke-width:1.803;stroke-linecap:round;stroke-miterlimit:4;stroke-dasharray:none" />
  <path
     inkscape:connector-curvature="0"
     id="path114"
     class="cl_wire"
     d="m 557.33905,458.14057 0,45.08217"
     style="fill:none;stroke:#000000;stroke-width:1.80328679;stroke-linecap:round" />
  <path
     inkscape:connector-curvature="0"
     id="path116"
     class="cl_wire"
     d="m 309.38712,322.89407 0,180.32867"
     style="fill:none;stroke:#000000;stroke-width:1.80328679;stroke-linecap:round" />
  <path
     inkscape:connector-curvature="0"
     id="path118"
     class="cl_wire"
     d="m 309.38712,322.89407 67.62325,0"
     style="fill:none;stroke:#000000;stroke-width:1.80328679;stroke-linecap:round" />
  <path
     inkscape:connector-curvature="0"
     id="path120"
     class="cl_wire"
     d="m 309.38712,232.72973 0,38.77066 a 6.311505,6.311505 0 0 1 0,12.62301 l 0,38.77067"
     style="fill:none;stroke:#000000;stroke-width:1.80328679;stroke-linecap:round" />
  <path
     inkscape:connector-curvature="0"
     id="path122"
     stroke-miterlimit="6"
     d="m 647.50336,372.2027 0,40.8557"
     style="fill:none;stroke:#000000;stroke-width:1.80328679;stroke-linecap:round;stroke-miterlimit:6" />
  <path
     inkscape:connector-curvature="0"
     id="path124"
     stroke-miterlimit="6"
     d="m 647.50336,363.74977 0,-40.85571"
     style="fill:none;stroke:#000000;stroke-width:1.80328679;stroke-linecap:round;stroke-miterlimit:6" />
  <path
     inkscape:connector-curvature="0"
     id="path126"
     stroke-miterlimit="6"
     d="m 670.04445,363.74977 -45.08217,0"
     style="fill:none;stroke:#000000;stroke-width:1.80328679;stroke-linecap:round;stroke-miterlimit:6" />
  <path
     inkscape:connector-curvature="0"
     id="path128"
     stroke-miterlimit="6"
     d="m 670.04445,372.2027 -45.08217,0"
     style="fill:none;stroke:#000000;stroke-width:1.80328679;stroke-linecap:round;stroke-miterlimit:6" />
  <path
     inkscape:connector-curvature="0"
     id="path136"
     stroke-miterlimit="6"
     d="m 647.50336,432.78184 0,-19.72344"
     style="fill:none;stroke:#000000;stroke-width:1.80328679;stroke-linecap:round;stroke-miterlimit:6" />
  <path
     inkscape:connector-curvature="0"
     id="path138"
     stroke-miterlimit="6"
     d="m 647.50336,483.49931 0,19.72343"
     style="fill:none;stroke:#000000;stroke-width:1.80328679;stroke-linecap:round;stroke-miterlimit:6" />
  <path
     inkscape:connector-curvature="0"
     id="path140"
     stroke-miterlimit="6"
     d="m 647.50336,432.78184 -9.86172,4.22645 19.72344,8.4529 -19.72344,8.45291 19.72344,8.45294 -19.72344,8.45291 19.72344,8.4529 -9.86172,4.22646"
     style="fill:none;stroke:#000000;stroke-width:1.80328679;stroke-linecap:round;stroke-miterlimit:6" />
  <text
     id="text142"
     y="458.14056"
     x="664.40918"
     style="font-size:14.42629433px;font-weight:bold;text-anchor:start;fill:#000000;stroke:none;font-family:Arial">
    <tspan
       id="tspan144"
       dy="-2.1639442">R3</tspan>
    <tspan
       id="tspan146"
       x="664.40918"
       dy="17.311554">10 Ω</tspan>
  </text>
  <path
     inkscape:connector-curvature="0"
     id="path148"
     stroke-miterlimit="6"
     d="m 760.20878,342.6175 0,-19.72344"
     style="fill:none;stroke:#000000;stroke-width:1.80328679;stroke-linecap:round;stroke-miterlimit:6" />
  <path
     inkscape:connector-curvature="0"
     id="path150"
     stroke-miterlimit="6"
     d="m 760.20878,393.33497 0,19.72343"
     style="fill:none;stroke:#000000;stroke-width:1.80328679;stroke-linecap:round;stroke-miterlimit:6" />
  <path
     inkscape:connector-curvature="0"
     id="path152"
     stroke-miterlimit="6"
     d="m 760.20878,342.6175 -9.86172,4.22645 19.72344,8.4529 -19.72344,8.45291 19.72344,8.45294 -19.72344,8.45291 19.72344,8.4529 -9.86172,4.22646"
     style="fill:none;stroke:#000000;stroke-width:1.80328679;stroke-linecap:round;stroke-miterlimit:6" />
  <text
     id="text154"
     y="367.97623"
     x="777.11462"
     style="font-size:14.42629433px;font-weight:bold;text-anchor:start;fill:#000000;stroke:none;font-family:Arial">
    <tspan
       id="tspan156"
       dy="-2.1639442">R4</tspan>
    <tspan
       id="tspan158"
       x="777.11462"
       dy="17.311554">1 kΩ</tspan>
  </text>
  <path
     inkscape:connector-curvature="0"
     id="path172"
     stroke-miterlimit="6"
     d="m 219.22275,207.37099 0,-19.72344"
     style="fill:none;stroke:#000000;stroke-width:1.80328679;stroke-linecap:round;stroke-miterlimit:6" />
  <path
     inkscape:connector-curvature="0"
     id="path174"
     stroke-miterlimit="6"
     d="m 219.22275,258.08846 0,19.72343"
     style="fill:none;stroke:#000000;stroke-width:1.80328679;stroke-linecap:round;stroke-miterlimit:6" />
  <path
     inkscape:connector-curvature="0"
     id="path176"
     stroke-miterlimit="6"
     d="m 219.22275,207.37099 -9.86172,4.22645 19.72344,8.4529 -19.72344,8.45291 19.72344,8.45294 -19.72344,8.45291 19.72344,8.4529 -9.86172,4.22646"
     style="fill:none;stroke:#000000;stroke-width:1.80328679;stroke-linecap:round;stroke-miterlimit:6" />
  <text
     id="text178"
     y="232.72972"
     x="236.12857"
     style="font-size:14.42629433px;font-weight:bold;text-anchor:start;fill:#000000;stroke:none;font-family:Arial">
    <tspan
       id="tspan180" />
  </text>
  <text
     y="246.85066"
     x="149.04942"
     style="font-size:14.42629433px;font-weight:bold;text-anchor:start;fill:#000000;stroke:none;font-family:Arial"
     id="text3122">
    <tspan
       x="149.04942"
       id="tspan3124">500kΩ</tspan>
  </text>
  <text
     id="text184"
     font-style="normal"
     y="416.79178"
     x="940.53748"
     style="font-size:14.42629433px;font-style:normal;font-weight:bold;text-anchor:start;fill:#000000;stroke:none;font-family:Arial">
    <tspan
       id="tspan186"
       dy="0 0 0 0 0 0 0 0 0 0 0">(3.5MM JACK)</tspan>
  </text>
  <path
     inkscape:connector-curvature="0"
     id="path188"
     class="cl_wire"
     d="m 221.87047,277.8119 155.1399,0"
     style="fill:none;stroke:#000000;stroke-width:1.80328679;stroke-linecap:round"
     sodipodi:nodetypes="cc" />
  <path
     inkscape:connector-curvature="0"
     id="path190"
     class="cl_wire"
     d="m 151.59953,187.64756 67.62325,0"
     style="fill:none;stroke:#000000;stroke-width:1.80328679;stroke-linecap:round" />
  <path
     inkscape:connector-curvature="0"
     id="path192"
     class="cl_wire"
     d="m 151.59953,97.483217 383.19844,0"
     style="fill:none;stroke:#000000;stroke-width:1.80328679;stroke-linecap:round" />
  <text
     id="text194"
     font-style="normal"
     y="174.57373"
     x="38.894077"
     style="font-size:14.42629433px;font-style:normal;font-weight:bold;text-anchor:start;fill:#000000;stroke:none;font-family:Arial">
    <tspan
       id="tspan196"
       dy="6.4918323">LINE IN</tspan>
  </text>
  <text
     id="text198"
     font-style="normal"
     y="84.409386"
     x="61.435165"
     style="font-size:14.42629433px;font-style:normal;font-weight:bold;text-anchor:start;fill:#000000;stroke:none;font-family:Arial">
    <tspan
       id="tspan200"
       dy="6.4918323">+12V</tspan>
  </text>
  <text
     id="text202"
     font-style="normal"
     y="490.1489"
     x="83.97625"
     style="font-size:14.42629433px;font-style:normal;font-weight:bold;text-anchor:start;fill:#000000;stroke:none;font-family:Arial">
    <tspan
       id="tspan204"
       dy="6.4918323">GND</tspan>
  </text>
  <path
     inkscape:connector-curvature="0"
     id="path206"
     class="cl_wire"
     d="m 309.38712,503.22274 450.82169,0"
     style="fill:none;stroke:#000000;stroke-width:1.80328679;stroke-linecap:round" />
  <path
     inkscape:connector-curvature="0"
     id="path208"
     class="cl_wire"
     d="m 151.59953,503.22274 157.78759,0"
     style="fill:none;stroke:#000000;stroke-width:1.80328679;stroke-linecap:round" />
  <path
     inkscape:connector-curvature="0"
     id="path210"
     class="cl_wire"
     d="m 219.22278,367.97624 0,135.2465"
     style="fill:none;stroke:#000000;stroke-width:1.80328679;stroke-linecap:round" />
  <path
     inkscape:connector-curvature="0"
     id="path212"
     class="cl_wire"
     d="m 512.25688,277.8119 22.54109,0"
     style="fill:none;stroke:#000000;stroke-width:1.80328679;stroke-linecap:round" />
  <text
     id="text214"
     font-style="normal"
     y="411.66296"
     x="895.45526"
     style="font-size:14.42629433px;font-style:normal;font-weight:bold;text-anchor:start;fill:#000000;stroke:none;font-family:Arial">
    <tspan
       id="tspan216"
       dy="6.4918323">X 3</tspan>
  </text>
  <text
     id="text218"
     font-style="normal"
     y="321.58667"
     x="895.45526"
     style="font-size:14.42629433px;font-style:normal;font-weight:bold;text-anchor:start;fill:#000000;stroke:none;font-family:Arial">
    <tspan
       id="tspan220"
       dy="6.4918323">X 2</tspan>
  </text>
  <text
     id="text222"
     font-style="normal"
     y="174.57373"
     x="106.51733"
     style="font-size:14.42629433px;font-style:normal;font-weight:bold;text-anchor:start;fill:#000000;stroke:none;font-family:Arial">
    <tspan
       id="tspan224"
       dy="6.4918323">X 1</tspan>
  </text>
  <path
     inkscape:connector-curvature="0"
     id="path228"
     class="cl_wire"
     d="m 760.20881,413.05841 112.70543,0"
     style="fill:none;stroke:#000000;stroke-width:1.80328679;stroke-linecap:round" />
  <text
     id="text230"
     font-style="normal"
     y="326.62744"
     x="940.53748"
     style="font-size:14.42629433px;font-style:normal;font-weight:bold;text-anchor:start;fill:#000000;stroke:none;font-family:Arial">
    <tspan
       id="tspan232"
       dy="0">(1W SPEAKER)</tspan>
  </text>
  <circle
     style="fill:#000000;stroke:#000000"
     sodipodi:ry="3"
     sodipodi:rx="3"
     sodipodi:cy="1350"
     sodipodi:cx="2000"
     d="m 2003,1350 c 0,1.6569 -1.3431,3 -3,3 -1.6569,0 -3,-1.3431 -3,-3 0,-1.6569 1.3431,-3 3,-3 1.6569,0 3,1.3431 3,3 z"
     id="circle234"
     r="3"
     cy="1350"
     cx="2000"
     transform="matrix(0.90164339,0,0,0.90164339,-1584.064,-939.40668)" />
  <circle
     style="fill:#000000;stroke:#000000"
     sodipodi:ry="3"
     sodipodi:rx="3"
     sodipodi:cy="1150"
     sodipodi:cx="2100"
     d="m 2103,1150 c 0,1.6569 -1.3431,3 -3,3 -1.6569,0 -3,-1.3431 -3,-3 0,-1.6569 1.3431,-3 3,-3 1.6569,0 3,1.3431 3,3 z"
     id="circle236"
     r="3"
     cy="1150"
     cx="2100"
     transform="matrix(0.90164339,0,0,0.90164339,-1584.064,-939.40668)" />
  <circle
     style="fill:#000000;stroke:#000000"
     sodipodi:ry="3"
     sodipodi:rx="3"
     sodipodi:cy="1300"
     sodipodi:cx="2100"
     d="m 2103,1300 c 0,1.6569 -1.3431,3 -3,3 -1.6569,0 -3,-1.3431 -3,-3 0,-1.6569 1.3431,-3 3,-3 1.6569,0 3,1.3431 3,3 z"
     id="circle238"
     r="3"
     cy="1300"
     cx="2100"
     transform="matrix(0.90164339,0,0,0.90164339,-1584.064,-939.40668)" />
  <circle
     style="fill:#000000;stroke:#000000"
     sodipodi:ry="3"
     sodipodi:rx="3"
     sodipodi:cy="1600"
     sodipodi:cx="2375"
     d="m 2378,1600 c 0,1.6569 -1.3431,3 -3,3 -1.6569,0 -3,-1.3431 -3,-3 0,-1.6569 1.3431,-3 3,-3 1.6569,0 3,1.3431 3,3 z"
     id="circle240"
     r="3"
     cy="1600"
     cx="2375"
     transform="matrix(0.90164339,0,0,0.90164339,-1584.064,-939.40668)" />
  <circle
     style="fill:#000000;stroke:#000000"
     sodipodi:ry="3"
     sodipodi:rx="3"
     sodipodi:cy="1400"
     sodipodi:cx="2100"
     d="m 2103,1400 c 0,1.6569 -1.3431,3 -3,3 -1.6569,0 -3,-1.3431 -3,-3 0,-1.6569 1.3431,-3 3,-3 1.6569,0 3,1.3431 3,3 z"
     id="circle242"
     r="3"
     cy="1400"
     cx="2100"
     transform="matrix(0.90164339,0,0,0.90164339,-1584.064,-939.40668)" />
  <circle
     style="fill:#000000;stroke:#000000"
     sodipodi:ry="3"
     sodipodi:rx="3"
     sodipodi:cy="1600"
     sodipodi:cx="2100"
     d="m 2103,1600 c 0,1.6569 -1.3431,3 -3,3 -1.6569,0 -3,-1.3431 -3,-3 0,-1.6569 1.3431,-3 3,-3 1.6569,0 3,1.3431 3,3 z"
     id="circle244"
     r="3"
     cy="1600"
     cx="2100"
     transform="matrix(0.90164339,0,0,0.90164339,-1584.064,-939.40668)" />
  <circle
     style="fill:#000000;stroke:#000000"
     sodipodi:ry="3"
     sodipodi:rx="3"
     sodipodi:cy="1400"
     sodipodi:cx="2475"
     d="m 2478,1400 c 0,1.6569 -1.3431,3 -3,3 -1.6569,0 -3,-1.3431 -3,-3 0,-1.6569 1.3431,-3 3,-3 1.6569,0 3,1.3431 3,3 z"
     id="circle246"
     r="3"
     cy="1400"
     cx="2475"
     transform="matrix(0.90164339,0,0,0.90164339,-1584.064,-939.40668)" />
  <circle
     style="fill:#000000;stroke:#000000"
     sodipodi:ry="3"
     sodipodi:rx="3"
     sodipodi:cy="1600"
     sodipodi:cx="2475"
     d="m 2478,1600 c 0,1.6569 -1.3431,3 -3,3 -1.6569,0 -3,-1.3431 -3,-3 0,-1.6569 1.3431,-3 3,-3 1.6569,0 3,1.3431 3,3 z"
     id="circle248"
     r="3"
     cy="1600"
     cx="2475"
     transform="matrix(0.90164339,0,0,0.90164339,-1584.064,-939.40668)" />
  <circle
     style="fill:#000000;stroke:#000000"
     sodipodi:ry="3"
     sodipodi:rx="3"
     sodipodi:cy="1400"
     sodipodi:cx="2600"
     d="m 2603,1400 c 0,1.6569 -1.3431,3 -3,3 -1.6569,0 -3,-1.3431 -3,-3 0,-1.6569 1.3431,-3 3,-3 1.6569,0 3,1.3431 3,3 z"
     id="circle250"
     r="3"
     cy="1400"
     cx="2600"
     transform="matrix(0.90164339,0,0,0.90164339,-1584.064,-939.40668)" />
  <circle
     style="fill:#000000;stroke:#000000"
     sodipodi:ry="3"
     sodipodi:rx="3"
     sodipodi:cy="1500"
     sodipodi:cx="2600"
     d="m 2603,1500 c 0,1.6569 -1.3431,3 -3,3 -1.6569,0 -3,-1.3431 -3,-3 0,-1.6569 1.3431,-3 3,-3 1.6569,0 3,1.3431 3,3 z"
     id="circle252"
     r="3"
     cy="1500"
     cx="2600"
     transform="matrix(0.90164339,0,0,0.90164339,-1584.064,-939.40668)" />
  <circle
     style="fill:#000000;stroke:#000000"
     sodipodi:ry="3"
     sodipodi:rx="3"
     sodipodi:cy="1600"
     sodipodi:cx="2000"
     d="m 2003,1600 c 0,1.6569 -1.3431,3 -3,3 -1.6569,0 -3,-1.3431 -3,-3 0,-1.6569 1.3431,-3 3,-3 1.6569,0 3,1.3431 3,3 z"
     id="circle254"
     r="3"
     cy="1600"
     cx="2000"
     transform="matrix(0.90164339,0,0,0.90164339,-1584.064,-939.40668)" />
  <path
     sodipodi:type="arc"
     style="fill:none;stroke:#181818;stroke-width:1.79999995;stroke-linecap:square;stroke-linejoin:miter;stroke-miterlimit:4;stroke-opacity:1;stroke-dasharray:none;stroke-dashoffset:0"
     id="path3424"
     sodipodi:cx="-48.136646"
     sodipodi:cy="45.919033"
     sodipodi:rx="5.4347825"
     sodipodi:ry="5.4347825"
     d="m -42.701864,45.919033 a 5.4347825,5.4347825 0 1 1 -10.869565,0 5.4347825,5.4347825 0 1 1 10.869565,0 z"
     transform="translate(193.2939,51.564184)" />
  <path
     sodipodi:type="arc"
     style="fill:none;stroke:#181818;stroke-width:1.79999995;stroke-linecap:square;stroke-linejoin:miter;stroke-miterlimit:4;stroke-opacity:1;stroke-dasharray:none;stroke-dashoffset:0"
     id="path3424-9"
     sodipodi:cx="-48.136646"
     sodipodi:cy="45.919033"
     sodipodi:rx="5.4347825"
     sodipodi:ry="5.4347825"
     d="m -42.701864,45.919033 a 5.4347825,5.4347825 0 1 1 -10.869565,0 5.4347825,5.4347825 0 1 1 10.869565,0 z"
     transform="translate(193.2939,141.72853)" />
  <path
     sodipodi:type="arc"
     style="fill:none;stroke:#181818;stroke-width:1.79999995;stroke-linecap:square;stroke-linejoin:miter;stroke-miterlimit:4;stroke-opacity:1;stroke-dasharray:none;stroke-dashoffset:0"
     id="path3424-1"
     sodipodi:cx="-48.136646"
     sodipodi:cy="45.919033"
     sodipodi:rx="5.4347825"
     sodipodi:ry="5.4347825"
     d="m -42.701864,45.919033 a 5.4347825,5.4347825 0 1 1 -10.869565,0 5.4347825,5.4347825 0 1 1 10.869565,0 z"
     transform="translate(193.2939,457.30371)" />
  <path
     sodipodi:type="arc"
     style="fill:none;stroke:#181818;stroke-width:1.79999995;stroke-linecap:square;stroke-linejoin:miter;stroke-miterlimit:4;stroke-opacity:1;stroke-dasharray:none;stroke-dashoffset:0"
     id="path3424-7"
     sodipodi:cx="-48.136646"
     sodipodi:cy="45.919033"
     sodipodi:rx="5.4347825"
     sodipodi:ry="5.4347825"
     d="m -42.701864,45.919033 a 5.4347825,5.4347825 0 1 1 -10.869565,0 5.4347825,5.4347825 0 1 1 10.869565,0 z"
     transform="translate(926.15179,367.13938)" />
  <path
     sodipodi:type="arc"
     style="fill:none;stroke:#181818;stroke-width:1.79999995;stroke-linecap:square;stroke-linejoin:miter;stroke-miterlimit:4;stroke-opacity:1;stroke-dasharray:none;stroke-dashoffset:0"
     id="path3424-2"
     sodipodi:cx="-48.136646"
     sodipodi:cy="45.919033"
     sodipodi:rx="5.4347825"
     sodipodi:ry="5.4347825"
     d="m -42.701864,45.919033 a 5.4347825,5.4347825 0 1 1 -10.869565,0 5.4347825,5.4347825 0 1 1 10.869565,0 z"
     transform="translate(926.15179,276.97504)" />
  <text
     id="text230-9"
     font-style="normal"
     y="57.472656"
     x="398.83679"
     style="font-size:14.42629433px;font-style:normal;font-weight:bold;text-anchor:start;fill:#000000;stroke:none;font-family:Arial">
    <tspan
       id="tspan232-4"
       style="font-size:24px">Saund-Box Internal Amp Circuit</tspan>
  </text>
  <g
     id="g3316"
     transform="matrix(0,-1,1,0,453.02946,1045.4157)">
    <path
       style="fill:none;stroke:#000000;stroke-width:1.80328679;stroke-linecap:round;stroke-miterlimit:6"
       d="m 745.06267,251.92921 -45.08217,0"
       stroke-miterlimit="6"
       id="path126-0"
       inkscape:connector-curvature="0" />
    <path
       style="fill:none;stroke:#000000;stroke-width:1.80328679;stroke-linecap:round;stroke-miterlimit:6"
       d="m 745.06267,260.38214 -45.08217,0"
       stroke-miterlimit="6"
       id="path128-3"
       inkscape:connector-curvature="0" />
  </g>
  <path
     style="fill:none;stroke:#000000;stroke-width:1.80299997;stroke-linecap:square;stroke-linejoin:miter;stroke-miterlimit:4;stroke-opacity:1;stroke-dasharray:none;stroke-dashoffset:0"
     d="m 509.92294,322.89407 193.77072,0"
     id="path3320"
     inkscape:connector-curvature="0"
     sodipodi:nodetypes="cc" />
  <path
     style="fill:none;stroke:#000000;stroke-width:1.80299997;stroke-linecap:square;stroke-linejoin:miter;stroke-miterlimit:4;stroke-opacity:1;stroke-dasharray:none;stroke-dashoffset:0"
     d="m 713.10762,322.89407 158.46837,0"
     id="path4090"
     inkscape:connector-curvature="0" />
  <g
     id="g4122"
     transform="translate(5.55193,0)">
    <text
       style="font-size:14.42629433px;font-style:normal;font-weight:bold;text-anchor:start;fill:#000000;stroke:none;font-family:Arial"
       x="680.85614"
       y="263.47775"
       font-style="normal"
       id="text198-0">
      <tspan
         id="tspan200-4">C4</tspan>
    </text>
    <text
       style="font-size:14.42629433px;font-style:normal;font-weight:bold;text-anchor:start;fill:#000000;stroke:none;font-family:Arial"
       x="681.18018"
       y="284.65918"
       font-style="normal"
       id="text198-8">
      <tspan
         id="tspan200-7">220 µF</tspan>
    </text>
  </g>
  <text
     xml:space="preserve"
     style="font-size:10px;font-style:normal;font-variant:normal;font-weight:normal;font-stretch:normal;text-align:start;line-height:125%;letter-spacing:0px;word-spacing:0px;writing-mode:lr-tb;text-anchor:start;fill:#000000;fill-opacity:1;stroke:none;font-family:Arial;-inkscape-font-specification:Sans"
     x="251.82349"
     y="211.43936"
     id="text3132"
     sodipodi:linespacing="125%"><tspan
       sodipodi:role="line"
       id="tspan3134"
       x="251.82349"
       y="211.43936" /></text>
  <text
     xml:space="preserve"
     style="font-size:10px;font-style:normal;font-variant:normal;font-weight:normal;font-stretch:normal;text-align:start;line-height:125%;letter-spacing:0px;word-spacing:0px;writing-mode:lr-tb;text-anchor:start;fill:#000000;fill-opacity:1;stroke:none;font-family:Arial;-inkscape-font-specification:Sans"
     x="248.6855"
     y="202.80989"
     id="text3136"
     sodipodi:linespacing="125%"><tspan
       sodipodi:role="line"
       id="tspan3138"
       x="248.6855"
       y="202.80989" /></text>
  <text
     xml:space="preserve"
     style="font-size:10px;font-style:normal;font-variant:normal;font-weight:normal;font-stretch:normal;text-align:start;line-height:125%;letter-spacing:0px;word-spacing:0px;writing-mode:lr-tb;text-anchor:start;fill:#000000;fill-opacity:1;stroke:none;font-family:Arial;-inkscape-font-specification:Sans"
     x="258.09946"
     y="213.79285"
     id="text3140"
     sodipodi:linespacing="125%"><tspan
       sodipodi:role="line"
       id="tspan3142"
       x="258.09946"
       y="213.79285" /></text>
  <text
     y="230.72009"
     x="148.26048"
     style="font-size:14.42629433px;font-weight:bold;text-anchor:start;fill:#000000;stroke:none;font-family:Arial"
     id="text3122-7">
    <tspan
       x="148.26048"
       id="tspan3124-9">R1</tspan>
  </text>
  <path
     inkscape:connector-curvature="0"
     id="path36-4"
     class="cl_wire"
     d="m 266.7745,230.89219 0,-31.85924"
     style="fill:none;stroke:#000000;stroke-width:1.80328679;stroke-linecap:round"
     sodipodi:nodetypes="cc" />
  <path
     inkscape:connector-curvature="0"
     id="path36-4-3"
     class="cl_wire"
     d="m 239.25079,230.86911 27.12846,0"
     style="fill:none;stroke:#000000;stroke-width:1.803;stroke-linecap:round;stroke-miterlimit:4;stroke-dasharray:none;marker-end:none;marker-start:url(#Arrow1Mstart)"
     sodipodi:nodetypes="cc" />
  <path
     inkscape:connector-curvature="0"
     id="path36-5"
     class="cl_wire"
     d="m 219.21435,198.68282 47.21309,0"
     style="fill:none;stroke:#000000;stroke-width:1.80328679;stroke-linecap:round"
     sodipodi:nodetypes="cc" />
  <text
     y="342.84091"
     x="234.75075"
     style="font-size:14.42629433px;font-weight:bold;text-anchor:start;fill:#000000;stroke:none;font-family:Arial"
     id="text3122-1">
    <tspan
       x="234.75075"
       id="tspan3124-0">15 kΩ</tspan>
  </text>
  <text
     y="326.71036"
     x="233.96181"
     style="font-size:14.42629433px;font-weight:bold;text-anchor:start;fill:#000000;stroke:none;font-family:Arial"
     id="text3122-7-3">
    <tspan
       x="233.96181"
       id="tspan3124-9-0">R2</tspan>
  </text>
  <text
     y="138.75607"
     x="337.48596"
     style="font-size:14.42629433px;font-weight:bold;text-anchor:start;fill:#000000;stroke:none;font-family:Arial"
     id="text3122-7-3-4">
    <tspan
       x="337.48596"
       id="tspan3124-9-0-2">C1</tspan>
  </text>
  <text
     y="383.36749"
     x="679.27637"
     style="font-size:14.42629433px;font-weight:bold;text-anchor:start;fill:#000000;stroke:none;font-family:Arial"
     id="text3139-1">
    <tspan
       x="679.27637"
       id="tspan3141-6">0.047µF</tspan>
  </text>
  <text
     y="366.82394"
     x="679.19891"
     style="font-size:14.42629433px;font-weight:bold;text-anchor:start;fill:#000000;stroke:none;font-family:Arial"
     id="text3122-7-3-4-7">
    <tspan
       x="679.19891"
       id="tspan3124-9-0-2-0">C3</tspan>
  </text>
</svg>
